<svg width="48" height="48" viewBox="0 0 48 48" xmlns="http://www.w3.org/2000/svg"><g fill="none" fill-rule="evenodd"><path d="M47.04 24.545c0-1.7-.153-3.338-.436-4.91H24v9.285h12.916c-.556 3-2.247 5.542-4.79 7.244v6.02h7.758c4.538-4.177 7.156-10.33 7.156-17.64z" fill="#4285F4"/><path d="M24 48c6.48 0 11.913-2.15 15.884-5.815l-7.757-6.02c-2.15 1.44-4.898 2.29-8.127 2.29-6.25 0-11.542-4.222-13.43-9.895H2.554v6.218C6.503 42.622 14.618 48 24 48z" fill="#34A853"/><path d="M10.57 28.56A14.427 14.427 0 0 1 9.82 24c0-1.582.273-3.12.753-4.56v-6.218H2.554A23.99 23.99 0 0 0 0 24c0 3.873.927 7.538 2.553 10.778l8.018-6.218z" fill="#FBBC05"/><path d="M24 9.545c3.524 0 6.687 1.21 9.175 3.59l6.883-6.884C35.902 2.38 30.468 0 24 0 14.618 0 6.502 5.378 2.553 13.222l8.018 6.218C12.46 13.767 17.75 9.545 24 9.545z" fill="#EA4335"/><path d="M0 0h48v48H0V0z"/></g></svg>